<?xml version="1.0" standalone="no"?>
<!DOCTYPE svg PUBLIC "-//W3C//DTD SVG 20010904//EN"
 "http://www.w3.org/TR/2001/REC-SVG-20010904/DTD/svg10.dtd">
<svg version="1.0" xmlns="http://www.w3.org/2000/svg"
 width="768.000000pt" height="768.000000pt" viewBox="0 0 768.000000 768.000000"
 preserveAspectRatio="xMidYMid meet">
<metadata>
Created by potrace 1.10, written by Peter Selinger 2001-2011
</metadata>
<g transform="translate(0.000000,768.000000) scale(0.100000,-0.100000)"
fill="#5d672b" stroke="none">
<path d="M3601 7458 c-106 -4 -201 -10 -210 -14 -9 -4 -59 -13 -111 -20 -122
-16 -310 -53 -374 -74 -17 -5 -65 -19 -106 -31 -126 -36 -271 -86 -350 -120
-14 -6 -38 -17 -55 -24 -61 -26 -361 -176 -390 -195 -16 -11 -41 -26 -55 -33
-70 -34 -254 -164 -410 -287 -162 -129 -390 -351 -500 -489 -19 -24 -45 -55
-56 -70 -87 -108 -281 -390 -304 -443 -6 -13 -20 -39 -32 -58 -49 -80 -160
-313 -193 -405 -10 -27 -22 -54 -27 -59 -4 -6 -8 -17 -8 -25 0 -9 -6 -28 -14
-42 -7 -15 -24 -60 -36 -100 -12 -41 -28 -92 -35 -114 -7 -22 -20 -71 -29
-110 -10 -38 -21 -84 -26 -100 -6 -17 -13 -53 -16 -80 -3 -28 -10 -63 -15 -80
-5 -16 -13 -66 -18 -110 -6 -44 -15 -111 -21 -150 -22 -146 -17 -717 9 -860 6
-33 15 -89 21 -125 9 -59 18 -108 49 -255 11 -54 26 -108 46 -170 7 -22 21
-67 31 -100 17 -58 73 -214 95 -265 6 -14 17 -38 24 -55 96 -223 275 -538 392
-690 5 -5 15 -21 24 -35 9 -14 26 -36 38 -50 11 -14 24 -30 28 -35 174 -227
448 -492 703 -679 58 -42 110 -80 115 -84 6 -4 28 -19 50 -32 22 -13 42 -27
45 -30 9 -12 128 -80 138 -80 6 0 12 -3 14 -7 3 -7 38 -28 118 -70 75 -39 281
-133 293 -133 7 0 17 -4 22 -8 6 -5 39 -19 75 -31 36 -13 72 -26 80 -31 9 -4
31 -11 50 -15 19 -4 41 -11 50 -16 17 -9 123 -39 225 -64 39 -9 86 -21 105
-26 73 -19 291 -51 490 -70 133 -13 605 -6 690 10 30 5 91 15 135 21 44 6 114
17 155 25 69 13 108 21 255 56 28 6 55 15 60 19 6 4 29 11 52 15 24 4 45 10
48 15 3 5 23 11 45 15 22 4 42 11 46 16 3 5 13 9 22 9 9 0 30 7 46 15 15 8 33
15 38 15 5 0 30 9 56 21 26 11 56 24 67 29 161 67 379 181 482 252 23 15 44
28 47 28 13 0 302 209 347 252 8 7 44 37 79 67 84 70 291 277 361 361 30 35
60 71 68 80 8 8 54 69 103 135 48 66 91 125 96 130 21 26 202 334 202 344 0 6
5 11 10 11 6 0 10 5 10 11 0 6 23 59 51 118 71 150 83 176 125 296 99 275 153
491 185 740 5 44 15 112 22 150 16 94 16 612 0 725 -7 47 -17 119 -22 160 -14
110 -49 296 -70 370 -6 19 -18 62 -27 95 -29 104 -87 280 -96 289 -4 6 -8 17
-8 25 -1 9 -9 34 -20 56 -11 22 -19 43 -20 47 0 10 -55 130 -99 218 -154 307
-279 492 -536 795 -85 100 -282 292 -380 370 -27 21 -52 42 -55 46 -3 3 -54
43 -115 87 -60 45 -114 85 -120 90 -5 4 -39 25 -75 46 -36 22 -72 45 -80 52
-31 25 -360 195 -455 235 -11 4 -40 17 -65 27 -166 71 -418 148 -605 186 -44
9 -100 21 -125 27 -25 6 -81 15 -125 19 -44 5 -114 13 -155 19 -104 13 -359
17 -589 9z m519 -193 c52 -8 118 -15 145 -15 28 0 79 -6 115 -14 75 -17 156
-33 220 -46 56 -11 126 -28 165 -42 17 -5 41 -12 55 -15 14 -3 39 -11 57 -19
17 -8 40 -14 51 -14 12 0 23 -4 27 -9 3 -5 19 -12 36 -16 17 -4 42 -13 57 -21
15 -8 34 -14 42 -14 8 0 24 -7 34 -15 11 -8 26 -15 33 -15 20 0 205 -89 308
-147 22 -12 47 -26 55 -30 8 -4 44 -24 80 -46 373 -224 748 -565 988 -897 122
-169 160 -226 229 -348 34 -59 167 -328 185 -372 6 -14 16 -38 24 -55 7 -16
16 -42 20 -58 3 -15 10 -30 15 -33 5 -3 9 -14 9 -24 0 -11 6 -34 14 -52 22
-54 37 -100 48 -148 6 -25 14 -49 19 -54 5 -6 9 -22 9 -37 0 -15 5 -40 11 -56
13 -32 34 -136 49 -241 6 -40 15 -84 20 -98 6 -14 10 -55 10 -92 0 -37 7 -123
15 -192 8 -69 15 -159 15 -200 0 -41 -7 -131 -15 -200 -8 -69 -15 -152 -15
-186 0 -34 -4 -74 -10 -90 -5 -16 -14 -60 -19 -99 -16 -111 -47 -252 -77 -345
-8 -25 -14 -52 -14 -61 0 -9 -7 -30 -15 -45 -8 -16 -15 -37 -15 -46 0 -10 -6
-32 -14 -50 -8 -18 -21 -52 -30 -75 -32 -85 -50 -129 -74 -183 -26 -60 -128
-266 -142 -290 -5 -8 -31 -51 -57 -95 -62 -105 -138 -217 -234 -341 -101 -132
-139 -174 -289 -324 -138 -138 -182 -179 -285 -260 -39 -30 -76 -60 -82 -66
-11 -11 -116 -84 -178 -124 -148 -96 -378 -219 -535 -287 -19 -8 -48 -21 -63
-29 -16 -8 -36 -14 -46 -14 -9 0 -26 -7 -37 -15 -10 -8 -27 -15 -37 -15 -11 0
-31 -6 -45 -14 -32 -16 -124 -46 -142 -46 -7 0 -26 -6 -43 -14 -18 -8 -53 -17
-79 -21 -26 -3 -50 -10 -53 -16 -4 -5 -21 -9 -39 -9 -18 0 -55 -7 -82 -15 -27
-8 -65 -15 -84 -15 -19 0 -60 -7 -90 -15 -30 -8 -77 -15 -103 -15 -26 0 -107
-7 -178 -16 -270 -33 -772 11 -1053 92 -26 8 -56 14 -64 14 -9 0 -34 6 -57 14
-22 8 -67 22 -100 31 -33 10 -74 24 -92 32 -17 7 -38 13 -46 13 -9 0 -18 4
-21 9 -3 5 -18 12 -33 15 -16 4 -44 14 -63 23 -19 9 -48 22 -65 29 -171 71
-465 235 -619 344 -70 50 -108 79 -256 198 -62 50 -338 326 -386 386 -21 28
-53 66 -69 85 -58 68 -245 332 -245 347 0 1 -12 22 -27 46 -16 24 -33 52 -40
63 -20 34 -140 277 -158 320 -18 44 -34 82 -57 135 -9 19 -19 50 -22 67 -4 18
-12 35 -17 38 -5 4 -9 15 -9 27 0 11 -6 34 -14 51 -8 18 -16 43 -19 57 -3 14
-9 39 -15 55 -29 88 -42 135 -42 156 0 13 -6 44 -14 69 -17 53 -35 153 -47
265 -4 44 -13 112 -18 150 -14 93 -13 522 0 610 6 39 14 106 19 150 4 44 13
107 19 140 26 131 44 212 57 259 8 26 14 56 14 66 0 10 7 31 15 46 8 16 15 36
15 44 0 8 12 47 26 85 14 39 28 79 31 90 2 11 11 34 18 50 7 17 23 55 35 85
39 96 95 214 145 305 19 33 40 71 47 85 12 21 68 115 111 184 15 25 8 16 124
171 199 268 421 490 710 708 56 42 105 77 109 77 3 0 23 14 44 30 21 17 40 30
43 30 3 0 25 13 49 29 60 40 123 75 191 108 31 15 57 31 57 35 0 4 5 8 12 8 6
0 41 14 77 31 66 31 103 47 164 73 17 7 48 20 67 28 19 9 50 19 67 22 18 4 35
12 38 17 4 5 16 9 28 9 12 0 35 7 51 15 15 8 38 15 50 15 11 1 32 7 46 15 14
8 39 14 55 15 17 0 43 7 59 15 15 8 40 15 54 15 14 0 48 6 76 14 70 20 162 35
286 46 58 5 123 13 145 19 66 15 467 13 575 -4z"/>
<path d="M3525 7190 c-71 -4 -146 -12 -165 -19 -19 -6 -55 -11 -80 -11 -25 -1
-63 -7 -85 -15 -22 -8 -53 -15 -69 -15 -28 0 -87 -14 -187 -46 -26 -8 -55 -14
-65 -14 -11 0 -32 -7 -48 -15 -15 -8 -36 -15 -45 -15 -9 0 -29 -7 -45 -15 -15
-8 -34 -15 -42 -15 -7 0 -30 -7 -51 -16 -21 -9 -51 -22 -68 -28 -164 -67 -425
-201 -552 -284 -298 -195 -520 -385 -737 -632 -131 -150 -303 -387 -366 -505
-6 -11 -24 -42 -40 -70 -37 -61 -140 -270 -140 -284 0 -5 -6 -22 -14 -38 -25
-49 -51 -114 -91 -223 -7 -19 -21 -62 -30 -95 -10 -33 -22 -71 -27 -85 -6 -14
-14 -45 -18 -70 -5 -25 -13 -63 -19 -85 -38 -148 -69 -350 -78 -510 -14 -238
-1 -629 26 -745 5 -25 15 -76 21 -115 18 -111 28 -163 39 -198 5 -17 17 -59
26 -92 9 -33 21 -73 27 -90 5 -16 14 -48 19 -70 6 -22 14 -44 20 -50 5 -5 9
-18 9 -30 0 -12 7 -30 15 -41 8 -10 15 -25 15 -32 0 -8 7 -30 16 -50 8 -21 21
-50 28 -67 33 -77 142 -295 168 -333 15 -24 28 -47 28 -51 0 -15 175 -273 218
-321 12 -13 22 -28 22 -32 0 -26 307 -352 450 -479 115 -101 412 -319 458
-336 10 -4 44 -23 77 -43 33 -20 123 -67 200 -105 144 -70 168 -81 245 -110
25 -10 59 -23 75 -30 17 -6 57 -20 90 -30 33 -10 74 -24 92 -32 17 -7 41 -13
53 -13 12 0 31 -5 43 -12 12 -6 42 -15 67 -19 25 -4 63 -12 85 -18 89 -23 185
-41 216 -41 19 0 67 -7 108 -15 90 -19 688 -22 786 -4 33 6 94 14 135 19 41 5
88 13 103 19 16 6 43 11 60 11 18 0 52 6 77 14 51 16 115 33 177 46 23 5 50
13 60 19 10 5 52 19 93 31 41 13 79 27 85 31 5 5 15 9 23 9 8 0 30 7 50 16 21
8 52 22 70 29 75 33 108 48 122 56 8 5 22 12 30 15 22 9 93 44 110 54 8 5 50
29 93 54 43 25 80 46 82 46 3 0 34 20 71 45 36 25 68 45 70 45 3 0 67 47 143
105 307 233 587 532 782 835 85 132 92 142 117 185 12 22 29 54 37 70 9 17 19
37 25 45 14 23 86 179 110 240 12 30 28 69 35 85 7 17 20 47 29 68 9 21 16 44
16 51 0 8 7 27 15 42 8 16 15 38 15 49 1 11 7 31 15 45 8 14 14 36 15 49 0 13
6 44 14 70 32 102 46 159 46 189 0 17 5 43 11 59 6 15 15 66 20 113 5 47 13
108 18 135 6 28 10 186 10 353 1 297 -4 368 -40 562 -5 30 -14 78 -18 105 -11
71 -50 223 -73 290 -5 17 -14 46 -18 65 -8 35 -33 108 -49 145 -5 11 -19 45
-31 75 -25 66 -29 75 -70 165 -17 39 -36 77 -41 85 -5 8 -12 22 -15 30 -12 29
-15 36 -49 95 -19 33 -39 71 -45 85 -6 14 -22 39 -36 57 -13 17 -24 34 -24 37
0 12 -156 234 -218 310 -65 80 -89 108 -197 224 -92 100 -289 276 -400 358
-55 41 -104 78 -110 82 -15 11 -142 93 -200 130 -27 17 -124 68 -215 113 -170
84 -193 95 -270 124 -25 10 -54 21 -65 26 -27 12 -104 38 -140 49 -16 5 -52
16 -80 24 -27 9 -70 21 -95 27 -25 6 -65 17 -90 25 -25 8 -57 14 -72 14 -15 0
-39 5 -55 11 -15 6 -62 15 -103 19 -41 5 -95 14 -120 19 -60 13 -562 21 -725
11z m577 -287 c55 -17 63 -25 48 -53 -7 -13 -21 -20 -39 -20 -16 0 -33 -6 -39
-12 -13 -17 -32 -119 -32 -177 0 -25 -7 -78 -15 -116 -19 -91 -19 -145 1 -197
22 -57 53 -86 107 -97 87 -20 146 8 186 87 12 23 21 54 21 69 0 16 5 44 10 63
6 19 15 80 20 135 6 55 13 123 16 152 l6 52 -33 9 c-36 9 -49 33 -29 57 9 11
32 13 108 9 81 -5 100 -10 115 -26 15 -18 16 -24 4 -42 -8 -11 -25 -23 -38
-26 -21 -5 -26 -16 -41 -95 -10 -50 -17 -111 -18 -137 0 -64 -28 -193 -53
-247 -32 -69 -84 -113 -160 -135 -63 -17 -68 -17 -144 0 -43 10 -85 23 -93 29
-8 7 -23 15 -32 18 -10 4 -34 31 -53 61 l-35 55 0 133 c1 81 6 157 15 193 8
33 15 92 15 132 0 70 0 71 -30 82 -34 11 -41 44 -13 59 23 13 167 4 225 -15z
m-969 -149 c94 -49 150 -122 202 -267 27 -75 18 -205 -18 -277 -16 -30 -38
-66 -50 -79 -59 -64 -189 -116 -271 -109 -100 9 -210 86 -253 178 -58 125 -57
121 -57 235 0 128 14 167 89 240 71 69 134 94 238 94 63 1 97 -4 120 -15z
m1724 1 c15 -8 46 -22 69 -32 34 -15 44 -26 58 -64 9 -26 16 -62 16 -81 0 -18
7 -60 15 -91 8 -32 15 -73 15 -91 0 -18 7 -55 15 -82 8 -27 15 -67 16 -89 1
-75 40 -144 55 -98 8 25 11 32 106 243 11 25 27 57 35 73 16 31 11 44 -23 57
-18 7 -24 17 -24 39 0 16 4 33 10 36 10 6 132 -40 190 -72 44 -25 52 -60 16
-69 -14 -3 -33 -4 -41 0 -18 7 -45 -2 -45 -15 0 -6 -14 -40 -31 -77 -17 -37
-40 -87 -51 -112 -12 -25 -35 -74 -51 -110 -17 -36 -36 -78 -43 -95 -36 -85
-87 -185 -94 -185 -5 0 -22 8 -39 17 -22 13 -33 30 -42 63 -14 53 -36 176 -49
278 -6 40 -15 82 -20 92 -6 10 -10 34 -10 52 0 44 -33 188 -43 188 -4 0 -10
-8 -14 -17 -3 -10 -16 -40 -28 -68 -13 -27 -33 -72 -45 -100 -29 -65 -68 -152
-86 -189 -17 -35 -10 -63 16 -71 22 -7 33 -35 24 -59 -9 -23 -50 -16 -129 24
-33 16 -65 30 -71 30 -6 0 -19 9 -29 20 -17 19 -17 21 0 40 14 16 26 19 55 14
34 -6 39 -4 45 17 4 13 20 51 36 84 15 33 39 85 52 115 34 75 85 187 108 236
25 52 24 63 -5 93 -19 20 -22 31 -15 49 10 26 35 28 76 7z m-2412 -312 c91
-113 90 -111 69 -134 -29 -32 -56 -23 -119 41 -33 33 -65 60 -72 60 -17 0
-103 -59 -103 -72 0 -10 54 -91 78 -117 8 -8 25 -33 39 -55 15 -23 40 -60 57
-82 17 -23 38 -52 46 -64 55 -81 103 -142 116 -147 8 -3 32 6 54 21 48 31 66
33 80 6 9 -18 6 -25 -19 -50 -17 -15 -57 -45 -89 -66 -31 -21 -83 -57 -114
-81 -59 -45 -76 -51 -96 -31 -20 20 -14 37 30 77 l42 39 -45 61 c-24 34 -71
100 -104 147 -78 112 -175 247 -185 257 -15 17 -110 -55 -110 -84 0 -10 11
-39 24 -66 46 -92 47 -98 20 -124 -19 -18 -29 -21 -42 -13 -18 12 -132 193
-132 211 0 13 30 38 145 118 130 91 299 213 310 224 26 26 52 10 120 -76z
m3216 -116 c9 -7 34 -27 56 -44 21 -18 54 -43 73 -55 19 -13 41 -36 50 -50 13
-25 13 -29 -1 -43 -13 -14 -20 -14 -57 -1 l-42 15 -30 -37 c-71 -89 -201 -253
-258 -329 -60 -80 -68 -105 -36 -117 17 -7 19 -50 2 -64 -17 -13 -44 -1 -88
37 -19 17 -61 50 -92 73 -46 35 -57 48 -55 68 3 32 38 38 74 14 26 -16 27 -16
47 12 12 16 46 60 77 99 30 38 99 125 152 192 53 67 97 129 97 138 0 9 -9 28
-20 42 -34 43 7 84 51 50z m-3905 -281 c17 -13 18 -18 7 -47 -7 -17 -9 -37 -5
-44 4 -7 39 -39 77 -71 213 -178 267 -238 291 -327 32 -118 -46 -258 -183
-328 -74 -38 -169 -21 -258 45 -36 28 -214 179 -275 233 -29 27 -34 28 -63 9
-31 -20 -67 -5 -67 28 0 13 4 26 8 28 5 2 39 39 77 83 37 44 71 84 75 88 4 5
17 3 29 -5 25 -15 28 -60 6 -78 -8 -7 -12 -16 -10 -21 10 -16 285 -250 329
-279 61 -41 141 -43 192 -3 38 28 74 89 74 123 0 34 -37 105 -73 141 -34 35
-110 102 -229 203 -69 59 -90 65 -118 31 -10 -12 -15 -12 -36 2 -34 22 -30 44
19 99 24 27 54 61 67 77 27 31 38 33 66 13z m4287 -134 c37 -10 73 -24 79 -30
7 -7 17 -12 23 -12 18 0 104 -90 124 -129 34 -66 45 -142 31 -202 -33 -137
-168 -266 -334 -319 -55 -18 -135 -8 -199 25 -62 31 -93 28 -83 -8 3 -12 6
-32 6 -44 0 -12 15 -41 34 -66 52 -68 53 -81 11 -106 -20 -11 -42 -21 -50 -21
-36 0 -115 138 -115 201 0 35 28 115 45 129 12 10 10 21 -15 71 -25 49 -30 70
-30 133 0 65 4 83 32 135 47 90 131 173 213 211 24 11 133 45 155 49 3 0 35
-8 73 -17z m-1237 -688 c61 -20 178 -78 224 -112 54 -40 80 -73 92 -120 6 -23
14 -45 19 -48 5 -3 9 -24 9 -47 1 -23 7 -60 15 -82 8 -22 15 -57 15 -79 0 -21
7 -68 15 -105 22 -102 37 -258 44 -466 4 -118 11 -198 19 -212 7 -12 12 -34
12 -50 1 -15 7 -39 15 -53 8 -14 15 -34 15 -45 1 -32 15 -48 38 -41 31 10 34
33 9 79 -21 40 -22 53 -22 257 0 211 1 216 25 255 39 63 53 74 109 85 115 22
203 -27 236 -132 27 -83 31 -253 9 -335 -20 -75 -42 -123 -69 -150 -29 -28
-93 -53 -140 -53 -36 0 -48 -6 -84 -41 l-41 -41 19 -31 c11 -18 28 -41 38 -52
62 -68 113 -160 113 -204 0 -13 15 -51 48 -121 9 -19 28 -51 43 -70 53 -70 60
-101 69 -325 9 -193 4 -692 -6 -723 -2 -8 -1 -24 2 -38 5 -20 13 -24 41 -24
70 0 73 -6 73 -144 0 -140 -3 -146 -73 -155 l-42 -6 -5 -180 c-5 -194 -11
-217 -61 -254 -35 -26 -84 -37 -93 -22 -5 7 -17 4 -36 -10 -25 -19 -38 -21
-125 -17 -70 3 -99 8 -106 18 -5 8 -10 56 -11 105 l-1 90 -6 -87 c-3 -47 -10
-90 -14 -94 -15 -15 -62 24 -87 72 -23 44 -25 62 -30 214 l-5 165 -340 0 -340
0 -3 -50 c-2 -27 -8 -55 -14 -62 -8 -10 -134 -13 -599 -13 l-589 0 0 49 c0 88
31 81 -355 81 -303 0 -344 -2 -349 -16 -3 -9 -6 -52 -6 -97 0 -45 -3 -126 -7
-179 -6 -94 -7 -99 -40 -132 -34 -34 -130 -70 -158 -59 -11 4 -15 32 -17 114
-4 147 -22 146 -28 -1 l-5 -115 -50 -3 c-76 -5 -167 23 -208 64 -30 30 -35 43
-41 102 -3 37 -6 120 -6 184 0 128 1 127 -65 143 -37 9 -40 13 -45 50 -3 22
-3 85 0 140 l5 100 40 5 40 5 7 190 c3 105 11 231 17 280 6 50 11 133 11 186
0 135 24 214 92 301 37 48 88 143 88 165 1 58 77 214 133 272 49 51 77 91 77
109 0 7 -9 20 -21 30 -27 22 -69 87 -69 107 0 24 -24 28 -65 11 -50 -21 -98
-20 -144 3 -45 23 -53 33 -74 91 -25 67 -25 393 0 447 29 64 53 93 90 108 41
17 120 20 160 4 40 -15 91 -67 98 -100 4 -16 11 -31 16 -34 5 -4 9 -80 9 -170
0 -141 -3 -172 -20 -215 -25 -64 -25 -71 2 -131 33 -70 48 -64 48 19 0 37 5
83 10 102 6 19 15 100 20 180 12 202 42 437 71 570 6 25 14 70 18 100 3 30 10
61 15 68 4 7 12 37 17 65 19 117 33 151 79 197 53 53 170 125 255 157 l60 22
911 0 c805 1 916 -1 960 -15z m-3540 -119 c54 -8 135 -15 179 -15 45 0 134 -7
200 -16 l118 -15 24 25 c27 30 27 30 54 16 26 -15 24 -28 -17 -117 -59 -126
-60 -128 -91 -128 -26 0 -28 3 -27 37 1 41 -5 46 -66 48 -63 3 -53 15 -123
-140 -43 -95 -43 -95 5 -140 l43 -40 22 25 c24 28 70 34 79 11 3 -8 -1 -28 -9
-43 -9 -15 -32 -63 -51 -105 -20 -43 -39 -78 -43 -78 -22 1 -43 30 -43 59 0
28 -16 48 -127 154 -356 340 -379 365 -365 386 6 12 12 25 12 31 0 6 7 22 16
35 20 30 62 32 210 10z m5390 7 c6 -4 20 -28 32 -54 l20 -47 -136 -134 c-75
-74 -190 -185 -255 -248 -91 -87 -117 -118 -113 -133 7 -26 -11 -56 -34 -56
-13 0 -26 16 -43 53 -14 28 -37 78 -52 110 -14 31 -25 65 -23 75 5 25 43 27
67 3 12 -12 24 -21 29 -21 14 0 82 71 82 86 0 8 -22 61 -50 119 l-49 105 -61
0 c-67 0 -80 -12 -60 -51 11 -19 10 -25 -6 -36 -38 -27 -47 -16 -120 141 -20
41 -17 64 7 77 18 9 25 7 48 -15 26 -25 29 -25 96 -16 39 6 142 15 230 20 88
6 178 14 200 19 50 11 176 13 191 3z"/>
<path d="M2935 6685 c-93 -24 -125 -72 -125 -188 0 -80 14 -142 48 -217 24
-50 92 -140 107 -140 7 0 19 -7 26 -16 10 -13 27 -15 76 -12 53 3 68 9 94 33
60 58 81 134 58 220 -6 22 -14 56 -18 75 -4 19 -12 44 -18 55 -5 11 -21 41
-34 67 -46 92 -135 144 -214 123z"/>
<path d="M5910 5779 c-74 -40 -185 -151 -215 -216 -29 -60 -31 -96 -9 -148 47
-114 177 -128 316 -35 174 117 242 266 168 368 -39 54 -56 62 -137 61 -56 0
-78 -5 -123 -30z"/>
<path d="M3125 5171 l-220 -6 -75 -38 c-83 -41 -127 -74 -116 -85 11 -11 2131
-8 2200 3 33 6 61 15 63 21 4 11 -134 84 -159 84 -8 0 -20 6 -26 12 -10 10
-172 13 -730 14 -394 0 -816 -2 -937 -5z"/>
<path d="M4850 4979 c-119 -10 -1960 -13 -2102 -3 -58 3 -108 3 -110 -2 -3 -5
-9 -23 -12 -40 -6 -27 -4 -32 16 -38 45 -13 711 -31 1163 -31 694 0 1243 20
1269 45 5 5 2 24 -8 44 -16 35 -19 36 -69 34 -29 0 -95 -5 -147 -9z"/>
<path d="M2637 4803 c-6 -10 -33 -130 -48 -213 -6 -36 -17 -129 -23 -208 -9
-116 -9 -146 2 -154 8 -7 16 -7 21 -2 4 5 16 72 25 149 9 77 21 165 27 195 6
30 14 82 19 115 4 33 11 68 15 78 11 26 -25 63 -38 40z"/>
<path d="M5420 4341 c0 -11 5 -23 10 -26 6 -3 10 -2 10 4 0 5 3 16 6 25 4 11
1 16 -10 16 -9 0 -16 -8 -16 -19z"/>
<path d="M2064 4325 c-3 -14 -3 -33 0 -42 6 -15 8 -15 16 -3 13 20 13 57 0 65
-5 3 -12 -6 -16 -20z"/>
<path d="M5397 4243 c-9 -55 -2 -368 8 -368 11 0 14 384 3 391 -3 2 -8 -8 -11
-23z"/>
<path d="M2036 4180 c-8 -41 -8 -106 1 -195 9 -101 21 -55 22 85 1 117 -10
171 -23 110z"/>
<path d="M2490 4113 c0 -71 80 -134 213 -168 89 -23 2144 -22 2242 0 37 9 74
19 83 24 9 4 34 16 55 26 54 26 99 80 95 113 -3 31 -10 31 -138 7 -155 -29
-493 -37 -1295 -32 -763 6 -1029 14 -1110 36 -22 6 -57 11 -77 11 -20 0 -40 5
-43 10 -13 21 -25 8 -25 -27z"/>
<path d="M5150 3965 c-20 -24 -120 -66 -203 -86 -74 -18 -135 -19 -1122 -19
-997 0 -1047 1 -1125 19 -72 18 -118 37 -187 81 -12 8 -25 11 -28 8 -13 -12
-24 -84 -30 -183 -9 -157 -36 -226 -129 -334 -56 -66 -76 -106 -100 -191 -23
-81 -65 -166 -116 -234 -57 -75 -69 -125 -80 -331 -6 -99 -13 -219 -16 -267
l-7 -86 74 -6 c41 -3 169 -8 284 -11 116 -2 275 -9 355 -14 193 -13 2136 -13
2310 0 74 5 237 13 362 17 144 5 232 12 239 19 8 8 10 115 7 370 -5 402 1 371
-88 505 -20 29 -44 80 -54 113 -37 124 -51 151 -104 215 -30 36 -63 75 -74 88
-17 20 -28 39 -67 112 -12 22 -41 115 -41 131 0 31 -21 87 -34 92 -8 3 -20 -1
-26 -8z m26 -119 c5 -14 -17 -56 -44 -85 -7 -8 -21 -26 -30 -40 -33 -52 -170
-218 -215 -260 -92 -87 -7 -81 -1071 -81 l-941 0 -50 29 c-74 42 -127 107
-229 277 -68 115 -75 134 -53 152 18 15 42 -6 73 -64 50 -94 156 -244 201
-284 l46 -40 958 0 959 0 72 69 c40 38 118 130 173 205 77 104 105 135 123
136 12 0 25 -6 28 -14z m-677 -140 c82 -83 93 -97 87 -120 l-6 -26 -750 0
c-735 0 -749 0 -755 20 -9 28 4 46 98 138 l85 82 573 0 574 0 94 -94z m152
-513 c11 -13 15 -87 17 -364 3 -301 1 -352 -13 -379 l-16 -30 -797 0 c-438 0
-802 4 -808 8 -6 4 -18 48 -27 98 -31 168 -20 569 18 672 3 9 174 12 808 12
736 0 806 -1 818 -17z m-2216 -13 c11 -12 19 -36 19 -55 0 -48 -28 -75 -76
-75 -68 0 -101 69 -60 125 23 32 90 35 117 5z m2901 -28 c37 -29 47 -58 33
-97 -22 -60 -85 -72 -130 -24 -37 40 -37 70 2 108 34 35 64 39 95 13z m-2556
-31 c32 -21 60 -49 60 -60 0 -5 7 -14 15 -21 11 -9 15 -33 15 -86 0 -62 -4
-81 -25 -114 -39 -62 -92 -90 -170 -90 -77 0 -128 26 -170 87 -21 32 -25 49
-25 111 0 52 5 80 18 100 34 52 81 88 128 95 46 7 126 -4 154 -22z m2301 -28
c51 -28 95 -81 114 -138 17 -50 17 -54 -1 -105 -68 -188 -306 -196 -385 -13
-10 25 -19 56 -19 69 0 32 44 125 69 148 60 54 160 72 222 39z m-2678 -210
c24 -23 22 -81 -5 -110 -26 -28 -82 -31 -110 -6 -24 22 -25 94 0 115 35 31 80
32 115 1z m2968 -23 c10 -6 26 -25 35 -42 15 -30 15 -34 -1 -65 -20 -37 -49
-48 -99 -39 -58 11 -73 74 -30 125 27 32 60 39 95 21z"/>
<path d="M3073 3162 c-7 -4 -14 -23 -15 -42 l-3 -35 762 -2 c420 -1 770 0 778
4 11 4 15 16 13 42 l-3 36 -760 2 c-418 2 -765 -1 -772 -5z"/>
<path d="M3054 3026 c-3 -8 -4 -31 -2 -52 l3 -39 780 0 780 0 3 26 c2 14 -2
37 -7 52 l-11 27 -770 0 c-650 0 -771 -2 -776 -14z"/>
<path d="M3052 2858 c-18 -18 -15 -95 4 -102 24 -9 1537 -7 1552 3 9 5 12 25
10 57 l-3 49 -775 3 c-595 2 -779 -1 -788 -10z"/>
<path d="M3054 2686 c-3 -8 -4 -29 -2 -48 l3 -33 763 -3 c519 -1 769 1 782 8
20 11 26 43 14 74 -6 14 -84 16 -780 16 -656 0 -775 -2 -780 -14z"/>
<path d="M3062 2523 l3 -38 770 0 770 0 0 35 0 35 -773 3 -773 2 3 -37z"/>
<path d="M2544 3015 c-4 -8 -3 -27 1 -43 l8 -27 7 25 c12 37 11 60 0 60 -6 0
-13 -7 -16 -15z"/>
<path d="M4885 3009 c-4 -6 -3 -15 3 -21 6 -6 11 -4 15 6 7 18 -9 31 -18 15z"/>
<path d="M4861 2898 c0 -39 3 -48 9 -33 12 28 12 73 0 80 -6 4 -10 -14 -9 -47z"/>
<path d="M2004 2257 c-3 -8 -4 -45 -2 -83 l3 -69 1810 0 1810 0 3 83 3 82
-123 0 c-68 0 -220 -7 -338 -16 -315 -24 -2239 -24 -2603 0 -316 20 -556 21
-563 3z"/>
<path d="M1914 2027 c-3 -8 -4 -45 -2 -83 l3 -69 652 -3 653 -2 5 22 c2 13 6
37 7 53 l3 30 572 3 c348 1 581 -2 597 -7 20 -8 25 -18 28 -53 l3 -43 655 0
655 0 3 60 c2 32 1 69 -3 82 l-5 23 -1911 0 c-1593 0 -1910 -2 -1915 -13z"/>
<path d="M3312 1898 c-17 -17 -15 -119 3 -142 25 -33 36 -6 33 74 -3 73 -13
91 -36 68z"/>
<path d="M2427 1753 c-10 -10 -8 -221 2 -227 15 -10 21 22 21 117 0 88 -8 125
-23 110z"/>
<path d="M1165 4991 c-2 -5 21 -31 52 -57 32 -27 86 -75 121 -106 35 -32 68
-58 73 -58 5 0 14 11 19 25 6 15 21 51 36 80 40 85 37 89 -86 97 -58 3 -114 8
-125 11 -46 13 -85 16 -90 8z"/>
<path d="M6450 5018 c-25 -5 -86 -12 -137 -16 -50 -4 -94 -10 -98 -14 -3 -3
-2 -14 4 -25 5 -10 25 -51 43 -90 18 -40 38 -73 43 -72 6 0 53 41 105 91 52
50 105 97 117 105 45 30 11 39 -77 21z"/>
</g>
</svg>
